<svg width="77" height="77" viewBox="0 0 77 77" fill="none" xmlns="http://www.w3.org/2000/svg">
<path d="M31.6689 0.246143C26.4927 0.9963 18.8869 3.78999 16.8798 5.67832C16.5893 5.96286 15.4009 6.86823 14.2389 7.69598C10.1719 10.619 6.28978 15.0165 3.67529 19.6726C2.56611 21.6644 0.902336 26.1395 0.902336 27.1742C0.902336 27.5622 0.691064 28.6487 0.453382 29.6316C0.110065 30.9767 0.00442852 32.5547 0.00442852 36.3054C-0.0219805 40.6253 0.0572466 41.4789 0.585428 43.2897C1.32488 45.8764 2.27561 48.3338 2.56611 48.3338C2.67174 48.3338 3.33197 49.5496 4.04501 51.0241C5.25983 53.5591 5.7616 54.2575 6.10492 53.9212C6.18414 53.8436 5.84083 52.8089 5.31265 51.6449C4.49397 49.7048 3.35838 46.342 2.88301 44.3502C2.80379 43.9364 2.80379 42.8241 2.90942 41.8928L3.09429 40.1856L3.4376 41.7635C3.62247 42.643 4.12424 44.0398 4.54678 44.8676C4.99574 45.6954 5.65596 47.1181 6.02569 47.9717C6.84437 49.9376 7.58382 51.2051 8.87787 52.8606C10.8321 55.3698 12.0734 56.7408 12.5223 56.9218C13.0769 57.1288 17.9626 57.0512 18.2003 56.8442C18.2795 56.7408 17.9626 56.301 17.4872 55.8095C17.0383 55.3181 16.378 54.3351 16.0083 53.6367C15.0312 51.619 14.6879 51.0758 14.3974 50.9723C14.0012 50.843 14.054 51.6966 14.503 52.4726C14.7143 52.8348 14.8727 53.3004 14.8727 53.5073C14.8727 53.766 14.7935 53.7401 14.5822 53.378C14.4238 53.0935 14.054 52.6796 13.7899 52.4726C13.2618 52.0329 11.4395 47.0922 11.3339 45.7471C11.0698 42.436 10.8321 40.8064 10.6473 40.6771C10.3304 40.496 10.3568 36.5124 10.6737 36.3054C10.9906 36.1244 11.0434 34.8827 10.7265 34.8827C10.2775 34.8827 9.35323 37.2625 9.35323 38.3748C9.35323 39.0215 9.24759 39.5389 9.08914 39.5389C8.79864 39.5389 8.77223 39.3061 8.82505 36.9521C8.85146 35.7881 8.9835 35.1931 9.24759 35.0638C9.45887 34.9603 9.61732 34.5982 9.61732 34.2878C9.61732 33.2531 10.7001 28.5969 11.3867 26.7345C12.8128 22.8543 15.5329 18.5345 16.4044 18.7414C16.7478 18.819 17.3552 18.2758 18.4379 16.9048C19.6792 15.3786 20.2073 14.9389 20.894 14.8095C21.4486 14.7061 21.9768 14.3698 22.3201 13.9042C22.7426 13.3351 23.0595 13.154 23.7726 13.154C24.2743 13.154 24.6705 13.0247 24.6705 12.8954C24.6705 12.7401 24.7761 12.6367 24.9346 12.6367C25.0666 12.6367 25.5948 12.3521 26.123 11.99C27.2586 11.2657 29.6354 10.3086 31.1407 10.0499C36.0264 9.1187 37.0299 9.06696 43.4209 9.29977C43.7642 9.29977 44.1868 9.48084 44.3452 9.66191C44.4773 9.86885 45.56 10.2569 46.722 10.5414C49.2309 11.1622 52.7433 12.5591 54.724 13.7231C57.8931 15.6114 63.0164 21.5868 62.541 22.8543C62.4354 23.0613 62.5146 23.2424 62.6731 23.2424C62.8315 23.2424 62.9636 23.3717 62.9636 23.5269C62.9636 23.708 63.1485 23.9666 63.3861 24.1477C63.6238 24.3029 63.8615 24.872 63.9143 25.3894C63.9671 25.9067 64.152 26.7345 64.3633 27.1742C65.2084 29.1143 65.3404 29.5282 65.3404 30.3559C65.3404 30.8474 65.446 31.2872 65.5781 31.3648C65.7101 31.4424 65.9742 32.5288 66.1591 33.7446C66.4232 35.5294 66.4232 36.6417 66.1591 39.3578C66.0006 41.1944 65.7365 42.9275 65.6045 43.1862C65.446 43.4449 65.3404 43.8588 65.3404 44.1433C65.3404 44.402 65.1027 44.8935 64.8122 45.2297C64.5217 45.566 64.284 46.0058 64.284 46.2127C64.284 47.1957 59.4776 54.0247 58.8174 54.0247C58.6325 54.0247 58.4741 54.154 58.4741 54.3351C58.4741 54.5162 58.1571 54.9559 57.761 55.3698C57.18 55.9648 57.1272 56.0941 57.4969 56.2234C58.0515 56.4304 58.923 55.9648 59.1343 55.3439C59.2135 55.0853 59.5832 54.7748 59.9266 54.6972C60.2963 54.5938 60.5868 54.361 60.5868 54.154C60.5868 53.9471 60.7716 53.766 60.9829 53.766C61.5639 53.766 61.1942 54.3868 60.0322 55.2922C59.0022 56.12 58.6853 56.8701 59.3456 56.8701C59.5304 56.8701 60.0322 56.508 60.4547 56.0941C61.3791 55.137 61.8544 55.0853 61.2734 55.9648C61.0357 56.3269 60.9037 56.7149 60.9565 56.8442C61.0357 56.9736 63.2277 57.0771 65.7894 57.0512H70.4638L71.1768 56.3269C72.0219 55.4474 73.9498 51.619 74.9797 48.8512C77.6734 41.4789 77.6734 31.6493 74.9797 24.2771C74.2138 22.2077 73.58 20.8625 73.2631 20.6556C73.1575 20.578 72.7349 19.8796 72.3388 19.1036C69.1433 12.8436 62.0129 6.11807 55.9652 3.60892C52.2679 2.1086 46.9861 0.78936 42.3645 0.220276C39.75 -0.0901337 33.9401 -0.0642662 31.6689 0.246143ZM16.246 55.6285C16.6421 56.3269 16.1404 56.1717 15.3217 55.3439C14.7935 54.8007 14.6879 54.5679 14.9519 54.4644C15.2953 54.3351 15.7442 54.749 16.246 55.6285Z" fill="black"/>
<path d="M17.0118 54.2318C17.0118 54.5163 17.2759 54.9302 17.5664 55.2147C17.8833 55.4734 18.2266 55.9649 18.3323 56.2494C18.5435 56.7926 19.8112 57.2583 20.0489 56.8702C20.2865 56.4822 17.8569 53.7661 17.2495 53.7661C17.1174 53.7661 17.0118 53.9731 17.0118 54.2318Z" fill="black"/>
<path d="M3.59604 63.8805C3.12068 64.0616 2.98864 64.2686 3.06786 64.8118C3.14709 65.5102 3.19991 65.5361 4.99572 65.6137C7.50458 65.6913 8.00635 66.0017 5.92004 66.1828C4.20345 66.3121 4.20345 66.3121 4.12423 67.1399C4.01859 68.0452 4.20345 68.1487 6.31618 68.3298C6.89717 68.3815 6.3954 68.4332 5.207 68.4591L3.01505 68.5108V69.2869C3.01505 70.244 3.56964 70.425 6.34258 70.2698C8.21763 70.1922 8.40249 70.1146 9.11553 69.3386C9.74935 68.6402 9.8814 68.278 9.8814 67.1399C9.8814 65.4585 9.48526 64.6824 8.29685 64.0875C7.29331 63.5443 4.67882 63.4408 3.59604 63.8805Z" fill="black"/>
<path d="M12.179 63.7512C12.0733 63.8547 11.9941 65.3808 11.9941 67.1398V70.3215H13.0505H14.1068V69.2868C14.1068 68.4073 14.1861 68.2521 14.6878 68.2521C15.0047 68.2521 15.6121 68.666 16.1403 69.2868C16.9062 70.1663 17.1967 70.3215 18.0946 70.3215C18.702 70.3215 19.1246 70.1922 19.1246 70.0111C19.1246 69.8559 18.6492 69.1575 18.0682 68.4849C17.4872 67.8124 17.0118 67.1657 17.0118 67.0364C17.0118 66.907 17.4872 66.2603 18.0682 65.5619C19.3886 64.0099 19.4151 63.596 18.2266 63.596C17.2759 63.596 16.9326 63.8288 15.797 65.3032C14.7671 66.5966 14.1597 66.4931 14.054 64.9411C13.9748 63.8029 13.922 63.7253 13.1825 63.6477C12.7336 63.596 12.2846 63.6477 12.179 63.7512Z" fill="black"/>
<path d="M22.3993 63.9577C21.1581 64.5009 20.7091 65.3028 20.7091 67.0101C20.7091 68.2776 20.8148 68.6139 21.475 69.3382C22.188 70.1142 22.3729 70.1918 24.2215 70.2694C27.4699 70.4505 28.6583 69.571 28.6847 67.0618C28.7111 65.4063 28.1829 64.4751 26.9153 63.9577C25.7797 63.4921 23.4821 63.518 22.3993 63.9577ZM26.0966 65.8202C26.7304 66.053 26.6776 67.8896 26.0174 68.2517C25.3571 68.588 23.9839 68.588 23.3236 68.2517C22.7426 67.9413 22.6106 66.4927 23.1388 65.9754C23.4821 65.6391 25.3835 65.5615 26.0966 65.8202Z" fill="black"/>
<path d="M30.9294 63.7771C30.8238 63.8547 30.7445 65.3808 30.7445 67.1398V70.3215H31.8009H32.8573V67.9935V65.6912L34.9172 65.6136L36.9507 65.536L37.0299 64.5531L37.1091 63.596H34.0985C32.4611 63.596 31.0086 63.6736 30.9294 63.7771Z" fill="black"/>
<path d="M39.4067 63.8547C38.9841 64.1133 38.9313 64.5531 38.9313 67.2174V70.3215H39.9877C40.9912 70.3215 41.044 70.2698 41.044 69.5455V68.7695H42.655C44.4508 68.7695 45.6656 68.2521 45.9033 67.3726C46.2202 66.2086 46.0617 65.1739 45.4279 64.4496C44.8205 63.7771 44.6621 63.7253 42.3117 63.6477C40.912 63.6218 39.6708 63.6995 39.4067 63.8547ZM43.817 65.9241C44.1075 66.3638 43.4208 66.9588 42.6286 66.9588C41.5458 66.9588 41.044 66.7001 41.044 66.1569C41.044 65.743 41.2553 65.6654 42.3381 65.6654C43.0775 65.6654 43.7378 65.7947 43.817 65.9241Z" fill="black"/>
<path d="M47.7783 63.8547C47.6727 64.0099 48.2273 64.9411 48.9667 65.9499C50.7626 68.3556 50.8154 68.5108 49.7854 68.5108C49.0196 68.5108 48.9667 68.5884 48.9667 69.4162C48.9667 70.2957 48.9932 70.3215 49.9703 70.3215C50.5249 70.3215 51.2115 70.1663 51.502 69.9594C52.2151 69.4679 55.3841 64.2168 55.1729 63.8547C55.0936 63.7253 54.6447 63.596 54.2221 63.596C53.5619 63.596 53.2978 63.8029 52.6112 64.8894C52.1622 65.5878 51.7133 66.1827 51.6341 66.1827C51.5548 66.1827 51.0795 65.5878 50.5777 64.8894C49.8118 63.7771 49.5477 63.596 48.8083 63.596C48.3329 63.596 47.8576 63.7253 47.7783 63.8547Z" fill="black"/>
<path d="M57.3385 63.7512C57.2328 63.8547 57.1536 65.3808 57.1536 67.1398V70.3215H58.21H59.2663V67.9935V65.6654H60.7188H62.1713V67.9935V70.3215H63.2277H64.3104L64.2312 67.0105L64.152 63.7253L60.8245 63.6477C59.0022 63.6218 57.4441 63.6736 57.3385 63.7512Z" fill="black"/>
<path d="M66.8458 63.7512C66.7401 63.8547 66.6609 65.3808 66.6609 67.1398V70.3215H67.7173H68.7736V67.9935V65.6654H70.2261H71.6786V67.9935V70.3215H72.735H73.8177L73.7385 67.0105L73.6593 63.7253L70.3317 63.6477C68.5095 63.6218 66.9514 63.6736 66.8458 63.7512Z" fill="black"/>
<path d="M25.2779 76.1675C25.1987 76.3745 25.2515 76.6849 25.3835 76.8142C25.5156 76.9436 30.771 77.0212 38.6937 76.9953C51.5285 76.9177 51.7397 76.9177 51.7397 76.4003C51.7397 75.883 51.5285 75.883 38.588 75.8054C26.836 75.7536 25.4363 75.7795 25.2779 76.1675Z" fill="black"/>
</svg>
